<svg width="29" height="29" viewBox="0 0 29 29" fill="none" xmlns="http://www.w3.org/2000/svg">
<path d="M7.76815 2.91574C8.09726 2.53865 8.05836 1.96616 7.68127 1.63706C7.30417 1.30795 6.73169 1.34685 6.40258 1.72394L4.84165 3.51248C3.95623 4.52701 3.4557 5.82055 3.42762 7.16682L3.35913 10.4507C3.3487 10.9511 3.74589 11.3652 4.24629 11.3756C4.74669 11.386 5.1608 10.9888 5.17124 10.4884L5.23973 7.20461C5.25894 6.28348 5.6014 5.39843 6.20722 4.70428L7.76815 2.91574Z" fill="black"/>
<path fill-rule="evenodd" clip-rule="evenodd" d="M7.5364 9.30514C7.70423 6.62175 9.9295 4.53132 12.6181 4.53132H13.2917V3.62507C13.2917 2.95773 13.8327 2.41674 14.5 2.41674C15.1673 2.41674 15.7083 2.95773 15.7083 3.62507V4.53132H16.3819C19.0705 4.53132 21.2958 6.62175 21.4636 9.30514L21.7306 13.5747C21.8325 15.2026 22.379 16.7713 23.3107 18.1101C24.1525 19.3197 23.4031 20.9903 21.9399 21.1659L17.8229 21.6599V22.9584C17.8229 24.7936 16.3352 26.2813 14.5 26.2813C12.6648 26.2813 11.1771 24.7936 11.1771 22.9584V21.6599L7.06014 21.1659C5.59693 20.9903 4.8475 19.3197 5.68933 18.1101C6.62102 16.7713 7.16754 15.2026 7.26935 13.5747L7.5364 9.30514ZM12.6181 6.34382C10.8866 6.34382 9.45345 7.69011 9.34536 9.41828L9.07832 13.6879C8.9558 15.6467 8.29816 17.5344 7.17701 19.1454C7.11616 19.2328 7.17033 19.3536 7.27609 19.3663L11.7924 19.9082C13.591 20.1241 15.409 20.1241 17.2076 19.9082L21.7239 19.3663C21.8297 19.3536 21.8838 19.2328 21.823 19.1454C20.7018 17.5344 20.0442 15.6467 19.9217 13.6879L19.6546 9.41828C19.5465 7.69011 18.1134 6.34382 16.3819 6.34382H12.6181ZM14.5 24.4688C13.6658 24.4688 12.9896 23.7926 12.9896 22.9584V22.0522H16.0104V22.9584C16.0104 23.7926 15.3342 24.4688 14.5 24.4688Z" fill="black"/>
<path d="M21.3187 1.63706C20.9417 1.96616 20.9028 2.53865 21.2319 2.91574L22.7928 4.70428C23.3986 5.39843 23.7411 6.28348 23.7603 7.20461L23.8288 10.4884C23.8392 10.9888 24.2533 11.386 24.7537 11.3756C25.2541 11.3652 25.6513 10.9511 25.6409 10.4507L25.5724 7.16682C25.5443 5.82055 25.0438 4.52701 24.1584 3.51248L22.5974 1.72394C22.2683 1.34685 21.6958 1.30795 21.3187 1.63706Z" fill="black"/>
</svg>
